<svg id="Layer_1" data-name="Layer 1" xmlns="http://www.w3.org/2000/svg" viewBox="0 0 191.12 149.11"><defs><style>.cls-1{fill:#1d1d1b;}</style></defs><title>logotype-vertical</title><path class="cls-1" d="M34,24.72c.26,0,.48,0,.48.52s-.61,4.82-.61,5.73a.75.75,0,0,1-.6.79,37.66,37.66,0,0,1-11.95,1.65c-11.69,0-16.07-9.3-16.07-15.12C5.24,7.82,13,1.43,21.31,1.43c7.38,0,8.64,1.65,9.82,1.65.78,0,1.08-.73,1.69-.73.09,0,.3.08.3.52a56.35,56.35,0,0,0,.83,7c0,.39-.52.56-.83.56a.44.44,0,0,1-.47-.35C30.78,5.26,28,2.56,22.44,2.56c-5.39,0-12,5.13-12,15.56,0,9.6,6.86,14.16,12.81,14.16,3.3,0,7.6-1.83,10.08-7.21C33.39,24.85,33.56,24.72,34,24.72Z"/><path class="cls-1" d="M43.77,15.86c2.26-1.52,4.17-2.61,6.82-2.61,1.48,0,5.74.3,5.74,6.52V30.19c0,.74.13,1.57,2.82,1.57.44,0,.44.26.44.56s0,.57-.61.57c-1.31,0-2.09-.09-4.39-.09-3.52,0-4.21.09-4.56.09s-.31-.31-.31-.53a.56.56,0,0,1,.61-.6c2.09,0,2.48-.18,2.48-1.61V22.37c0-4-.35-6.73-4.87-6.73-1.86,0-4,.87-4.17,1.61V28.76c0,2.47.09,3,2,3,1.17,0,1.26,0,1.26.56,0,.26,0,.57-.43.57-.22,0-.79-.09-3.83-.09-4.08,0-5.21.09-5.64.09s-.35-.27-.35-.48c0-.57,0-.65,1.65-.65A1.51,1.51,0,0,0,40,30.71c.18-.39.26-6.12.26-8V7.52c0-3.78-.13-4.31-2.52-4.52a.46.46,0,0,1-.39-.52c0-.35.13-.57.35-.61a35.11,35.11,0,0,0,6-1.87c.17,0,.26.22.26.48a38.72,38.72,0,0,0-.22,6.25Z"/><path class="cls-1" d="M64.63,18.51c0-1.52-.39-2.39-2.57-2.61-.34,0-.39-.22-.39-.52s.13-.57.35-.61c4.95-1,5.56-2.13,6.08-2.13.09,0,.18.26.18.44,0,.52-.22,1.6-.22,4,1.43-1.61,3.78-3.78,6.08-3.78,1.52,0,2.78.82,2.78,2.43a2.14,2.14,0,0,1-2.13,2.17c-1.78,0-2-1.65-3.34-1.65a4.88,4.88,0,0,0-3,1.87,1.86,1.86,0,0,0-.3,1.26v9.86c0,1.61,0,2.57,2.17,2.57,1.61,0,1.78,0,1.78.52s-.17.61-.65.61c-1.57,0-3-.09-5-.09-3.48,0-4.22.09-5,.09-.31,0-.39-.27-.39-.57s.52-.56,1.34-.56c1.87,0,2.22-.35,2.22-2.22Z"/><path class="cls-1" d="M85.05,28.76c0,2.47.08,3,2,3,1,0,1,0,1,.56,0,.26,0,.57-.44.57-.21,0-.78-.09-3.6-.09-4.09,0-5.22.09-5.87.09-.34,0-.34-.27-.34-.48,0-.57,0-.65,1.65-.65a1.62,1.62,0,0,0,1.78-1.05,44.57,44.57,0,0,0,.26-6.25V18.51c0-1.52-.39-2.39-2.56-2.61-.35,0-.39-.22-.39-.52s.13-.57.34-.61c5-1,5.56-2.13,6.08-2.13.18,0,.26.22.26.48a40.65,40.65,0,0,0-.21,6.26ZM81,4.3a2.26,2.26,0,1,1,2.26,2.3A2.3,2.3,0,0,1,81,4.3Z"/><path class="cls-1" d="M103.82,27.5c0,2.13-1.13,5.91-7.09,5.91-.78,0-3.3-.35-5-.35a.28.28,0,0,1-.22-.22c0-.43-1-4.26-1-4.69,0-.26.61-.26.78-.26,1,0,1.31,4.39,5.48,4.39a3.7,3.7,0,0,0,4-3.87c0-4.56-9.73-3.08-9.73-9.25,0-3.56,3-5.91,6.6-5.91a35.35,35.35,0,0,1,4.69.39c.57.13.66,1,.66,1.22.08,1.78.47,2.91.47,3.47,0,.26-.26.35-.47.35a.76.76,0,0,1-.87-.61c-.31-.74-1.44-3.69-4.52-3.69-2,0-3.48,1.17-3.48,3.26a3.3,3.3,0,0,0,2,2.91C100.69,22.72,103.82,22.59,103.82,27.5Z"/><path class="cls-1" d="M112.9,25.15c0,4.61.39,6.26,3.82,6.26a7.1,7.1,0,0,0,3-1c.18,0,.48.43.48.69s-1.82,2.31-5.77,2.31c-5,0-5-4.3-5-5.39V16.59c0-.34-.13-.56-.44-.56h-2.17c-.13,0-.26-.13-.26-.39a.78.78,0,0,1,.26-.61c4-3,4.87-5.34,5.74-5.34a.51.51,0,0,1,.52.56c0,.78-.13,1.52-.13,4h6.69c.3,0,.43.3.43.91s-.26,1.09-1.17,1.09c-.31,0-2.35-.22-5.95-.22Z"/><path class="cls-1" d="M127.67,28.76c0,2.47.09,3,2,3,1,0,1,0,1,.56,0,.26,0,.57-.43.57-.22,0-.79-.09-3.61-.09-4.08,0-5.21.09-5.86.09-.35,0-.35-.27-.35-.48,0-.57,0-.65,1.65-.65a1.62,1.62,0,0,0,1.78-1.05,44.57,44.57,0,0,0,.26-6.25V18.51c0-1.52-.39-2.39-2.56-2.61-.35,0-.39-.22-.39-.52s.13-.57.34-.61c5-1,5.56-2.13,6.09-2.13.17,0,.26.22.26.48a38.82,38.82,0,0,0-.22,6.26Zm-4-24.46a2.26,2.26,0,1,1,2.26,2.3A2.3,2.3,0,0,1,123.63,4.3Z"/><path class="cls-1" d="M147.18,30.45c0,.7.3.87.74.87.86,0,1.52-1,1.86-1s.57.31.57.48c0,.52-2.83,2.61-4.35,2.61s-1.91-1-2.39-2.52c-2.56,2-3.78,2.52-5.6,2.52-3.39,0-4.17-2.48-4.17-3.87,0-2.22,1.3-4,9.82-7.21V18.38c0-2.26-2.61-3.44-3.65-3.44s-3.09,1.57-3.09,2c0,.61.57,1.22.57,2.17,0,.48-.39,1.66-2.13,1.66a1.66,1.66,0,0,1-1.82-1.61c0-1.18.3-1.74,3.56-3.91s3.73-2.17,4.69-2.17c1.39,0,5.39,1,5.39,5ZM143.66,24c0-.21-.13-.43-.31-.43a22.57,22.57,0,0,0-4.3,2.13c-1.21.91-1.43,1.56-1.43,3.17,0,1.35.56,2.69,2,2.69,1.65,0,4-1.52,4-2.3Z"/><path class="cls-1" d="M158.82,28.76c0,2.47.09,3,2,3,1.17,0,1.26,0,1.26.56,0,.26,0,.57-.44.57-.21,0-.78-.09-3.82-.09-4.08,0-5.21.09-5.86.09-.35,0-.35-.27-.35-.48,0-.57,0-.65,1.65-.65A1.62,1.62,0,0,0,155,30.71a44.57,44.57,0,0,0,.26-6.25V18.51c0-1.52-.39-2.39-2.56-2.61-.35,0-.39-.22-.39-.52s.13-.57.35-.61c5-1,5.56-2.13,6.08-2.13.08,0,.13.13.13.48s-.09,1.22-.09,3.13c2.26-1.52,4.47-3,6.82-3,1.48,0,5.74.3,5.74,6.52V30.19c0,.74.13,1.57,2.82,1.57.43,0,.43.26.43.56s0,.57-.6.57c-1.31,0-2.09-.09-4.39-.09-3.52,0-4.22.09-4.56.09s-.31-.31-.31-.53a.56.56,0,0,1,.61-.6c2.09,0,2.48-.18,2.48-1.61V22.37c0-4-.35-6.73-4.87-6.73-1.65,0-4,1.48-4.17,2Z"/><path class="cls-1" d="M11.82,67.15c0-5.17-.26-5.74-3.13-5.74-.57,0-1.13-.26-1.13-.52,0-1.13,0-1.22.78-1.22,1.87,0,4.35.18,6.87.18.95,0,2.82-.18,7.82-.18,9,0,10.68,4.57,10.68,6.91,0,4.43-3.13,6.56-7.25,7.47-.31.09-.57.09-.57.26s.31.13,2.22.66c6.78,1.82,6.73,6.82,6.73,7.51,0,5.52-4.17,8.25-11,8.25-.48,0-1.26-.08-8.64-.08-2.52,0-5,.08-7.09.08-.43,0-.56-.17-.56-.56,0-1.09.13-1.17,1-1.17,3.13,0,3.22-.57,3.22-6.91Zm6.77,6.47H19.9c5.78,0,6.64-3.56,6.64-6,0-3.39-2-6.17-5.56-6.17-2.21,0-2.39.39-2.39,2.22Zm0,13.12c0,1.52.57,2.26,2.31,2.26a6.42,6.42,0,0,0,6.77-6.52c0-4.08-2.3-7.12-6.73-7.12H18.59Z"/><path class="cls-1" d="M40.84,77.35c0-2.69-.61-3-2.6-3.43-.4-.08-.44-.26-.44-.65,0-.22.09-.48.22-.52,6.08-1.09,7.82-2.78,8-2.78a.65.65,0,0,1,.53.61c0,.35-.22,2.52-.22,6.69V90.56c0,1.83-.09,4.17-3.69,7.78-2,2-5,4.12-5.52,4.12-.26,0-.65-.82-.65-1s.69-.56,1.74-1.61c2.21-2.21,2.6-5,2.6-10Zm2.7-17.89a3.22,3.22,0,1,1-3.22,3.21A3.2,3.2,0,0,1,43.54,59.46Z"/><path class="cls-1" d="M57.83,79.05c0,.52-.09.78-.09,1,0,3.57,2,7.74,7.08,7.74,4.35,0,5.17-3,5.74-3,.39,0,.87.22.87.65,0,.61-2.18,5.82-9.21,5.82C53.92,91.21,52,84.44,52,81c0-5.69,4-10.51,9.91-10.51,7.25,0,9.34,5.39,9.34,7.6,0,.92-.17,1-.91,1Zm3.6-1.57c3.44,0,3.83-.26,3.83-1.56,0-2.21-1.22-3.87-3.52-3.87-2.57,0-3.78,3.09-3.78,5.3C59.13,77.44,60.26,77.48,61.43,77.48Z"/><path class="cls-1" d="M76.69,64.32c0-2.82-.35-3.21-2.83-3.43-.22,0-.3-.17-.3-.61,0-.61.17-.69,2.17-1a38,38,0,0,0,6.43-1.65.49.49,0,0,1,.43.43c0,2.13-.39,2.65-.39,9V87.43c0,1.61,1,1.7,1.26,1.7,1.61.08,1.83.21,1.83.56,0,.83,0,1-.39,1-1.74,0-3.57-.09-5.48-.09s-3.69.09-5.43.09c-.39,0-.39-.17-.39-1,0-.35.22-.48,1.83-.56.21,0,1.26-.09,1.26-1.7Z"/><path class="cls-1" d="M89.76,64.32c0-2.82-.34-3.21-2.82-3.43-.22,0-.31-.17-.31-.61,0-.61.18-.69,2.18-1a38.28,38.28,0,0,0,6.43-1.65.49.49,0,0,1,.43.43c0,2.13-.39,2.65-.39,9V87.43c0,1.61,1,1.7,1.26,1.7,1.61.08,1.82.21,1.82.56,0,.83,0,1-.39,1-1.73,0-3.56-.09-5.47-.09s-3.69.09-5.43.09c-.39,0-.39-.17-.39-1,0-.35.22-.48,1.82-.56.22,0,1.26-.09,1.26-1.7Z"/><path class="cls-1" d="M116.57,87.43c0,.52.13,1.09.82,1.09,1.18,0,1.26-1,1.87-1,.13,0,.7.43.7.6,0,.7-2.57,3.13-5.26,3.13a3.58,3.58,0,0,1-3.56-2.69,8.77,8.77,0,0,1-6,2.69c-2.56,0-4.43-1.34-4.43-4s2.13-3.78,3.39-4.34l7-3v-4c0-1.56-1.74-2.82-3.48-2.82-.78,0-2.69,1-2.69,1.82,0,.22.61,1.09.61,1.57,0,1.61-1,2.43-2.65,2.43a2,2,0,0,1-2.13-2c0-1.34.83-2.21,4.08-4.12s3.65-2,5.35-2c6.43,0,6.43,4.17,6.43,5.39Zm-5.52-6c-3.69,1.48-5,2.08-5,4.82a2,2,0,0,0,2,2.26c.78,0,3-.91,3-1.78v-5.3Z"/><path class="cls-1" d="M123.91,77.35c0-2.69-.61-3-2.61-3.43-.39-.08-.43-.26-.43-.65,0-.22.09-.48.22-.52,6.08-1.09,7.82-2.78,8-2.78,0,0,.35.17.35.39,0,1.09-.13,2.3-.13,3.43,2.56-1.78,5-3,7.65-3a5.32,5.32,0,0,1,5.51,5.65v11c0,1.61,1.05,1.7,1.26,1.7,1.61.08,2.26.21,2.26.56,0,.83,0,1-.82,1-1.74,0-3.56-.09-5.48-.09s-3.69.09-5,.09c-.39,0-.39-.17-.39-1,0-.35.21-.48,1.39-.56.21,0,1.26-.09,1.26-1.7V77.79c0-1.39-.7-4-3.65-4a6.25,6.25,0,0,0-3.82,1.6,11.36,11.36,0,0,0-.09,1.83V87.43c0,1.61,1,1.7,1.26,1.7,1.61.08,1.82.21,1.82.56,0,.83,0,1-.39,1-1.74,0-3.56-.09-5.47-.09s-3.69.09-5.43.09c-.39,0-.39-.17-.39-1,0-.35.21-.48,1.82-.56.22,0,1.26-.09,1.26-1.7Z"/><path class="cls-1" d="M162.49,64.32c0-2.82-.35-3.21-2.82-3.43-.22,0-.31-.17-.31-.61,0-.61.18-.69,2.18-1A37.74,37.74,0,0,0,168,57.68c.13,0,.44.17.44.43,0,2.13-.39,2.65-.39,9V86.39c0,1.56.39,1.78,2.26,2,.3,0,.39.31.39.57s0,.65-.31.69c-5.86,1-7.29,1.52-7.47,1.52s-.35-.08-.35-.21.05-1,.09-2.18a8.71,8.71,0,0,1-6.17,2.39c-5.86,0-8.9-4.47-8.9-9.95,0-5.25,4.25-10.77,9.82-10.77a9.94,9.94,0,0,1,5.12,1.22Zm0,12.17c0-3.31-2.26-4-3.65-4-4.26,0-4.86,4.64-4.86,8,0,3.17,1,8.34,4.9,8.34a3.34,3.34,0,0,0,3.61-3.65Z"/><path class="cls-1" d="M28.76,140.42c.26,0,.48,0,.48.52s-.61,4.82-.61,5.73a.75.75,0,0,1-.61.79,37.66,37.66,0,0,1-11.95,1.65C4.39,149.11,0,139.81,0,134c0-10.47,7.78-16.86,16.07-16.86,7.39,0,8.65,1.65,9.82,1.65.78,0,1.09-.73,1.7-.73.08,0,.3.08.3.52a57,57,0,0,0,.82,7c0,.39-.52.56-.82.56a.45.45,0,0,1-.48-.35c-1.87-4.77-4.6-7.47-10.21-7.47-5.38,0-12,5.13-12,15.55C5.17,143.42,12,148,18,148c3.3,0,7.6-1.83,10.07-7.21C28.15,140.55,28.32,140.42,28.76,140.42Z"/><path class="cls-1" d="M42.62,149.11A9.72,9.72,0,0,1,32.54,139,9.84,9.84,0,0,1,42.62,129,9.78,9.78,0,0,1,52.74,139C52.74,145.11,48.7,149.11,42.62,149.11Zm0-19c-4.52,0-5.95,4.69-5.95,8.95,0,3.69.87,8.95,5.95,8.95s6-5.26,6-8.95C48.62,134.77,47.18,130.08,42.62,130.08Z"/><path class="cls-1" d="M62.09,144.46c0,2.47.08,3,2,3,1.18,0,1.26,0,1.26.56,0,.26,0,.56-.43.56-.22,0-.78-.08-3.82-.08-4.09,0-5.22.08-5.65.08s-.35-.26-.35-.47c0-.57,0-.65,1.65-.65a1.53,1.53,0,0,0,1.57-1.05c.17-.39.26-6.12.26-8V123.21c0-3.77-.13-4.3-2.52-4.51a.46.46,0,0,1-.39-.52c0-.35.13-.57.34-.61a34.77,34.77,0,0,0,6-1.87c.18,0,.26.22.26.48a40.54,40.54,0,0,0-.21,6.25Z"/><path class="cls-1" d="M74.16,144.46c0,2.47.09,3,2,3,1.17,0,1.26,0,1.26.56,0,.26,0,.56-.43.56-.22,0-.78-.08-3.82-.08-4.09,0-5.22.08-5.65.08s-.35-.26-.35-.47c0-.57,0-.65,1.65-.65a1.51,1.51,0,0,0,1.56-1.05c.18-.39.26-6.12.26-8V123.21c0-3.77-.13-4.3-2.52-4.51a.46.46,0,0,1-.39-.52c0-.35.13-.57.35-.61a34.77,34.77,0,0,0,6-1.87c.17,0,.26.22.26.48a38.72,38.72,0,0,0-.22,6.25Z"/><path class="cls-1" d="M83.85,136.77a15.82,15.82,0,0,0-.17,2.48c0,2.82,2.39,7.16,7.12,7.16a5.69,5.69,0,0,0,5.09-2.6c.26-.35.43-.74.65-.74a.91.91,0,0,1,.69.52,7.92,7.92,0,0,1-7.47,5.52c-6.21,0-9.47-3.83-9.47-9.91S84.5,128.78,89,128.78c7.21,0,7.77,6.21,7.77,7.51,0,.44-.17.48-.52.48Zm7.47-1.3c.87,0,1.48-.26,1.48-1.44,0-3.39-2.34-4.13-3.82-4.13-3.13,0-4.43,2.61-4.87,5.57Z"/><path class="cls-1" d="M115.7,144.85c.35-.31.52-.7.74-.7s.65.31.65.61a1,1,0,0,1-.35.65,9.78,9.78,0,0,1-7.6,3.7c-5,0-9-3.61-9-9.82,0-6.43,4.25-10.34,9.86-10.34,5.95,0,7.08,3.21,7.08,4.13a2.25,2.25,0,0,1-2.3,1.86c-1.39,0-1.57-.43-2.05-2.82-.13-.65-.43-2-2.69-2-2.74,0-6.12,2.08-6.12,9.21,0,2,.73,7.38,7.38,7.38A7.94,7.94,0,0,0,115.7,144.85Z"/><path class="cls-1" d="M125.34,140.85c0,4.61.4,6.26,3.83,6.26a7.16,7.16,0,0,0,3-1c.17,0,.48.43.48.69s-1.83,2.31-5.78,2.31c-5,0-5-4.3-5-5.39V132.29c0-.34-.13-.56-.44-.56h-2.17c-.13,0-.26-.13-.26-.39a.74.74,0,0,1,.26-.61c4-3,4.86-5.34,5.73-5.34a.51.51,0,0,1,.52.56c0,.78-.13,1.52-.13,4H132c.31,0,.44.3.44.91s-.26,1.09-1.17,1.09c-.31,0-2.35-.22-6-.22Z"/><path class="cls-1" d="M140.12,144.46c0,2.47.08,3,2,3,1,0,1,0,1,.56,0,.26,0,.56-.44.56-.22,0-.78-.08-3.6-.08-4.09,0-5.22.08-5.87.08-.35,0-.35-.26-.35-.47,0-.57,0-.65,1.66-.65a1.63,1.63,0,0,0,1.78-1.05,44.57,44.57,0,0,0,.26-6.25v-5.95c0-1.52-.39-2.39-2.57-2.61-.34,0-.39-.22-.39-.52s.13-.57.35-.61c4.95-1,5.56-2.13,6.08-2.13.18,0,.26.22.26.48a40.54,40.54,0,0,0-.21,6.25Zm-4-24.46a2.26,2.26,0,1,1,2.25,2.3A2.3,2.3,0,0,1,136.08,120Z"/><path class="cls-1" d="M156.06,149.11A9.72,9.72,0,0,1,146,139a10.1,10.1,0,0,1,20.2,0C166.18,145.11,162.14,149.11,156.06,149.11Zm0-19c-4.52,0-5.95,4.69-5.95,8.95,0,3.69.87,8.95,5.95,8.95s6-5.26,6-8.95C162.06,134.77,160.62,130.08,156.06,130.08Z"/><path class="cls-1" d="M175.31,144.46c0,2.47.09,3,2,3,1.17,0,1.26,0,1.26.56,0,.26,0,.56-.44.56-.21,0-.78-.08-3.82-.08-4.08,0-5.21.08-5.86.08-.35,0-.35-.26-.35-.47,0-.57,0-.65,1.65-.65a1.62,1.62,0,0,0,1.78-1.05,44.57,44.57,0,0,0,.26-6.25v-5.95c0-1.52-.39-2.39-2.56-2.61-.35,0-.39-.22-.39-.52s.13-.57.34-.61c5-1,5.56-2.13,6.09-2.13.08,0,.13.13.13.48s-.09,1.22-.09,3.13c2.26-1.52,4.47-3,6.82-3,1.48,0,5.73.3,5.73,6.52v10.42c0,.74.13,1.57,2.83,1.57.43,0,.43.26.43.56s0,.56-.61.56c-1.3,0-2.08-.08-4.38-.08-3.52,0-4.22.08-4.57.08s-.3-.3-.3-.52a.56.56,0,0,1,.61-.6c2.08,0,2.47-.18,2.47-1.61v-7.78c0-4-.34-6.73-4.86-6.73-1.65,0-4,1.48-4.17,2Z"/></svg>