<svg id="cbc_logo_horisontal" data-name="Layer 1" 
  xmlns="http://www.w3.org/2000/svg" viewBox="0 0 618.65 50.47">
  <defs>
    <style>.cls-1{fill:#1d1d1b;}</style>
  </defs>
  <title>Christian Bjelland Collection</title>
  <path class="cls-1" d="M32.4,28.05c.3,0,.54.05.54.59s-.68,5.43-.68,6.46a.84.84,0,0,1-.69.88,42.27,42.27,0,0,1-13.46,1.86C4.94,37.84,0,27.36,0,20.8,0,9,8.76,1.81,18.11,1.81c8.32,0,9.74,1.86,11.06,1.86.89,0,1.23-.83,1.91-.83.1,0,.35.1.35.59a63.85,63.85,0,0,0,.93,7.83c0,.44-.59.64-.93.64a.5.5,0,0,1-.54-.4C28.78,6.12,25.7,3.08,19.38,3.08c-6.07,0-13.56,5.78-13.56,17.53,0,10.82,7.74,16,14.45,16,3.72,0,8.56-2.06,11.35-8.13C31.72,28.2,31.92,28.05,32.4,28.05Z"/>
  <path class="cls-1" d="M43.42,18.06c2.54-1.71,4.7-2.93,7.68-2.93,1.67,0,6.46.34,6.46,7.34V34.22c0,.83.15,1.76,3.19,1.76.48,0,.48.29.48.63s0,.64-.68.64c-1.47,0-2.35-.1-4.94-.1-4,0-4.75.1-5.14.1s-.35-.34-.35-.59a.63.63,0,0,1,.69-.68c2.35,0,2.79-.2,2.79-1.81V25.41c0-4.56-.39-7.59-5.48-7.59-2.11,0-4.51,1-4.7,1.81v13c0,2.79.09,3.38,2.25,3.38,1.32,0,1.42.05,1.42.63,0,.3,0,.64-.49.64-.25,0-.88-.1-4.31-.1-4.6,0-5.87.1-6.36.1s-.39-.29-.39-.54c0-.63,0-.73,1.86-.73a1.71,1.71,0,0,0,1.76-1.18c.19-.44.29-6.9.29-9V8.66c0-4.25-.15-4.84-2.84-5.09A.51.51,0,0,1,36.17,3c0-.4.15-.64.39-.69,4-.68,6.32-2.1,6.81-2.1.19,0,.29.24.29.53s-.24.69-.24,7.05Z"/>
  <path class="cls-1" d="M66.91,21.05c0-1.71-.44-2.69-2.89-2.94-.39-.05-.44-.24-.44-.59s.15-.63.39-.68c5.59-1.13,6.27-2.4,6.86-2.4.1,0,.19.29.19.49,0,.59-.24,1.81-.24,4.45,1.61-1.81,4.26-4.25,6.85-4.25,1.72,0,3.13.93,3.13,2.74a2.4,2.4,0,0,1-2.39,2.44c-2,0-2.3-1.86-3.77-1.86a5.49,5.49,0,0,0-3.38,2.11A2.07,2.07,0,0,0,70.88,22V33.09c0,1.81,0,2.89,2.44,2.89,1.82,0,2,.05,2,.59s-.19.68-.73.68c-1.77,0-3.33-.1-5.58-.1-3.92,0-4.75.1-5.68.1-.34,0-.44-.29-.44-.64s.59-.63,1.52-.63c2.1,0,2.49-.39,2.49-2.5Z"/>
  <path class="cls-1" d="M89.92,32.6c0,2.79.1,3.38,2.25,3.38,1.08,0,1.17.05,1.17.63,0,.3,0,.64-.49.64-.24,0-.88-.1-4.06-.1-4.6,0-5.87.1-6.61.1-.39,0-.39-.29-.39-.54,0-.63,0-.73,1.86-.73a1.83,1.83,0,0,0,2-1.18,50.73,50.73,0,0,0,.29-7v-6.7c0-1.71-.44-2.69-2.89-2.94-.39-.05-.44-.24-.44-.59s.15-.63.4-.68c5.58-1.13,6.26-2.4,6.85-2.4.19,0,.29.25.29.54s-.24.68-.24,7.05ZM85.37,5a2.55,2.55,0,1,1,2.54,2.6A2.59,2.59,0,0,1,85.37,5Z"/>
  <path class="cls-1" d="M111.06,31.18c0,2.4-1.27,6.66-8,6.66-.88,0-3.72-.39-5.62-.39a.32.32,0,0,1-.25-.25c0-.49-1.13-4.79-1.13-5.28,0-.3.69-.3.89-.3,1.17,0,1.46,4.95,6.16,4.95a4.18,4.18,0,0,0,4.46-4.36c0-5.14-11-3.48-11-10.43,0-4,3.33-6.65,7.44-6.65a39.06,39.06,0,0,1,5.29.44c.64.14.73,1.07.73,1.37.1,2,.54,3.28.54,3.91,0,.3-.29.39-.54.39-.44,0-.73,0-1-.68-.35-.83-1.62-4.16-5.1-4.16-2.3,0-3.91,1.32-3.91,3.67a3.72,3.72,0,0,0,2.3,3.28C107.54,25.8,111.06,25.65,111.06,31.18Z"/>
  <path class="cls-1" d="M121.29,28.54c0,5.19.44,7.05,4.31,7.05a8.13,8.13,0,0,0,3.33-1.13c.19,0,.54.49.54.78s-2.06,2.6-6.51,2.6c-5.63,0-5.63-4.85-5.63-6.07V18.9c0-.4-.15-.64-.49-.64h-2.45c-.15,0-.29-.15-.29-.44a.88.88,0,0,1,.29-.69c4.55-3.42,5.48-6,6.46-6a.58.58,0,0,1,.59.64c0,.88-.15,1.71-.15,4.5h7.54c.34,0,.49.34.49,1S129,18.5,128,18.5c-.34,0-2.64-.24-6.71-.24Z"/>
  <path class="cls-1" d="M137.94,32.6c0,2.79.09,3.38,2.25,3.38,1.07,0,1.17.05,1.17.63,0,.3,0,.64-.49.64-.24,0-.88-.1-4.06-.1-4.6,0-5.87.1-6.61.1-.39,0-.39-.29-.39-.54,0-.63.05-.73,1.86-.73a1.84,1.84,0,0,0,2-1.18,50.73,50.73,0,0,0,.29-7v-6.7c0-1.71-.44-2.69-2.89-2.94-.39-.05-.44-.24-.44-.59s.15-.63.39-.68c5.58-1.13,6.27-2.4,6.86-2.4.19,0,.29.25.29.54s-.24.68-.24,7.05ZM133.38,5a2.55,2.55,0,1,1,2.55,2.6A2.6,2.6,0,0,1,133.38,5Z"/>
  <path class="cls-1" d="M159.91,34.51c0,.78.35,1,.84,1,1,0,1.71-1.13,2.1-1.13s.64.35.64.54c0,.59-3.19,2.94-4.9,2.94s-2.15-1.13-2.69-2.84c-2.89,2.25-4.26,2.84-6.32,2.84-3.81,0-4.69-2.79-4.69-4.36,0-2.49,1.46-4.55,11.06-8.12V20.9C156,18.36,153,17,151.84,17s-3.48,1.77-3.48,2.26c0,.68.64,1.37.64,2.44,0,.54-.44,1.86-2.4,1.86a1.88,1.88,0,0,1-2.06-1.81c0-1.32.35-2,4-4.4s4.21-2.45,5.28-2.45c1.57,0,6.07,1.17,6.07,5.63Zm-4-7.24c0-.25-.15-.49-.34-.49a25.43,25.43,0,0,0-4.85,2.39c-1.37,1-1.62,1.77-1.62,3.58,0,1.52.64,3,2.3,3,1.87,0,4.51-1.71,4.51-2.59Z"/>
  <path class="cls-1" d="M173,32.6c0,2.79.1,3.38,2.25,3.38,1.32,0,1.42.05,1.42.63,0,.3,0,.64-.49.64-.24,0-.88-.1-4.31-.1-4.6,0-5.87.1-6.6.1-.4,0-.4-.29-.4-.54,0-.63,0-.73,1.86-.73a1.82,1.82,0,0,0,2-1.18,48.52,48.52,0,0,0,.3-7v-6.7c0-1.71-.45-2.69-2.89-2.94-.39-.05-.44-.24-.44-.59s.14-.63.39-.68c5.58-1.13,6.26-2.4,6.85-2.4.1,0,.15.15.15.54s-.1,1.37-.1,3.52c2.55-1.71,5-3.37,7.69-3.37,1.66,0,6.46.34,6.46,7.34V34.22c0,.83.14,1.76,3.18,1.76.49,0,.49.29.49.63s0,.64-.69.64c-1.47,0-2.35-.1-4.94-.1-4,0-4.75.1-5.14.1s-.34-.34-.34-.59a.62.62,0,0,1,.68-.68c2.35,0,2.79-.2,2.79-1.81V25.41c0-4.56-.39-7.59-5.48-7.59-1.86,0-4.5,1.66-4.7,2.25Z"/>
  <path class="cls-1" d="M210.52,10.67c0-5.82-.29-6.46-3.52-6.46-.64,0-1.27-.29-1.27-.59,0-1.27.05-1.37.88-1.37,2.1,0,4.89.2,7.73.2,1.08,0,3.18-.2,8.81-.2,10.19,0,12,5.14,12,7.79,0,5-3.53,7.39-8.18,8.41-.34.1-.64.1-.64.3s.35.15,2.5.73c7.64,2.06,7.59,7.69,7.59,8.47,0,6.22-4.7,9.3-12.39,9.3-.53,0-1.42-.1-9.74-.1-2.84,0-5.63.1-8,.1-.49,0-.63-.19-.63-.64,0-1.22.14-1.32,1.17-1.32,3.53,0,3.62-.63,3.62-7.78ZM218.16,18h1.47c6.51,0,7.49-4,7.49-6.8,0-3.82-2.25-6.95-6.27-6.95-2.49,0-2.69.44-2.69,2.5Zm0,14.79c0,1.71.64,2.54,2.59,2.54A7.24,7.24,0,0,0,228.39,28c0-4.6-2.59-8-7.59-8h-2.64Z"/>
  <path class="cls-1" d="M243,22.17c0-3-.69-3.37-2.94-3.86-.44-.1-.49-.3-.49-.74,0-.24.1-.54.25-.58,6.85-1.23,8.81-3.14,9-3.14s.59.39.59.69-.25,2.84-.25,7.54v15c0,2-.09,4.69-4.16,8.76-2.25,2.25-5.58,4.65-6.21,4.65-.3,0-.74-.93-.74-1.18s.79-.63,2-1.81C242.54,45,243,41.9,243,36.17ZM246,2a3.62,3.62,0,1,1-3.62,3.62A3.61,3.61,0,0,1,246,2Z"/>
  <path class="cls-1" d="M261.87,24.08c-.05.59-.1.88-.1,1.08,0,4,2.21,8.71,8,8.71,4.9,0,5.83-3.37,6.46-3.37.44,0,1,.24,1,.73,0,.69-2.45,6.56-10.38,6.56-9.34,0-11.55-7.64-11.55-11.5,0-6.42,4.55-11.85,11.16-11.85C274.6,14.44,277,20.51,277,23c0,1-.2,1.07-1,1.07Zm4.06-1.76c3.87,0,4.31-.29,4.31-1.76,0-2.5-1.37-4.36-4-4.36-2.89,0-4.26,3.48-4.26,6C263.34,22.27,264.61,22.32,265.93,22.32Z"/>
  <path class="cls-1" d="M282.87,7.49c0-3.18-.39-3.62-3.18-3.87-.25,0-.34-.19-.34-.68,0-.69.19-.79,2.44-1.08A42.9,42.9,0,0,0,289,0c.14,0,.49.2.49.49,0,2.4-.44,3-.44,10.13V33.53c0,1.81,1.17,1.91,1.42,1.91,1.81.1,2.05.24,2.05.64,0,.93,0,1.12-.44,1.12-2,0-4-.1-6.17-.1s-4.16.1-6.12.1c-.44,0-.44-.19-.44-1.12,0-.4.25-.54,2.06-.64.24,0,1.42-.1,1.42-1.91Z"/>
  <path class="cls-1" d="M297.36,7.49c0-3.18-.39-3.62-3.18-3.87-.25,0-.35-.19-.35-.68,0-.69.2-.79,2.45-1.08A43.21,43.21,0,0,0,303.53,0c.14,0,.49.2.49.49,0,2.4-.45,3-.45,10.13V33.53c0,1.81,1.18,1.91,1.42,1.91,1.82.1,2.06.24,2.06.64,0,.93,0,1.12-.44,1.12-2,0-4-.1-6.17-.1s-4.16.1-6.12.1c-.44,0-.44-.19-.44-1.12,0-.4.25-.54,2.06-.64.24,0,1.42-.1,1.42-1.91Z"/>
  <path class="cls-1" d="M327.31,33.53c0,.59.15,1.22.93,1.22,1.33,0,1.42-1.17,2.11-1.17.15,0,.78.49.78.69,0,.78-2.89,3.52-5.92,3.52a4,4,0,0,1-4-3,9.83,9.83,0,0,1-6.76,3c-2.89,0-5-1.52-5-4.55s2.4-4.26,3.82-4.9L321.1,25v-4.5c0-1.76-2-3.18-3.92-3.18-.88,0-3,1.17-3,2.06,0,.24.68,1.22.68,1.76,0,1.81-1.12,2.74-3,2.74a2.22,2.22,0,0,1-2.4-2.25c0-1.52.93-2.5,4.6-4.65,3.52-2.06,4.11-2.21,6-2.21,7.24,0,7.24,4.7,7.24,6.07Zm-6.21-6.75c-4.16,1.66-5.63,2.35-5.63,5.43a2.29,2.29,0,0,0,2.3,2.54c.88,0,3.33-1,3.33-2v-6Z"/>
  <path class="cls-1" d="M335.34,22.17c0-3-.68-3.37-2.94-3.86-.44-.1-.49-.3-.49-.74,0-.24.1-.54.25-.58,6.85-1.23,8.81-3.14,9-3.14.05,0,.4.2.4.44,0,1.23-.15,2.6-.15,3.87,2.89-2,5.63-3.43,8.61-3.43a6,6,0,0,1,6.22,6.37V33.53c0,1.81,1.18,1.91,1.42,1.91,1.81.1,2.55.24,2.55.64,0,.93,0,1.12-.93,1.12-2,0-4-.1-6.17-.1s-4.16.1-5.63.1c-.44,0-.44-.19-.44-1.12,0-.4.24-.54,1.57-.64.24,0,1.41-.1,1.41-1.91V22.66c0-1.56-.78-4.45-4.11-4.45a7.08,7.08,0,0,0-4.3,1.81,12.89,12.89,0,0,0-.1,2.06V33.53c0,1.81,1.17,1.91,1.42,1.91,1.81.1,2,.24,2,.64,0,.93,0,1.12-.44,1.12-2,0-4-.1-6.17-.1s-4.16.1-6.11.1c-.44,0-.44-.19-.44-1.12,0-.4.24-.54,2.05-.64.25,0,1.42-.1,1.42-1.91Z"/>
  <path class="cls-1" d="M378.56,7.49c0-3.18-.39-3.62-3.18-3.87-.24,0-.34-.19-.34-.68,0-.69.19-.79,2.45-1.08A42.66,42.66,0,0,0,384.73,0a.57.57,0,0,1,.49.49c0,2.4-.44,3-.44,10.13V32.36c0,1.76.44,2,2.54,2.3.35.05.44.34.44.63s0,.74-.34.79c-6.61,1.12-8.22,1.71-8.42,1.71s-.39-.1-.39-.25.05-1.12.1-2.44a9.85,9.85,0,0,1-6.95,2.69c-6.61,0-10-5-10-11.21,0-5.92,4.8-12.14,11.07-12.14a11.28,11.28,0,0,1,5.77,1.37Zm0,13.71c0-3.72-2.54-4.56-4.11-4.56-4.8,0-5.48,5.24-5.48,9.06,0,3.57,1.17,9.4,5.53,9.4A3.76,3.76,0,0,0,378.56,31Z"/>
  <path class="cls-1" d="M435.73,28.05c.3,0,.54.05.54.59s-.68,5.43-.68,6.46a.84.84,0,0,1-.69.88,42.32,42.32,0,0,1-13.46,1.86c-13.17,0-18.11-10.48-18.11-17,0-11.79,8.76-19,18.11-19,8.32,0,9.74,1.86,11.06,1.86.88,0,1.23-.83,1.91-.83.1,0,.34.1.34.59a63.85,63.85,0,0,0,.93,7.83c0,.44-.58.64-.93.64a.49.49,0,0,1-.53-.4c-2.11-5.38-5.19-8.42-11.51-8.42-6.07,0-13.56,5.78-13.56,17.53,0,10.82,7.74,16,14.44,16,3.72,0,8.57-2.06,11.36-8.13C435.05,28.2,435.24,28.05,435.73,28.05Z"/>
  <path class="cls-1" d="M451.35,37.84A11,11,0,0,1,440,26.48a11.38,11.38,0,0,1,22.76,0C462.75,33.33,458.2,37.84,451.35,37.84Zm0-21.44c-5.09,0-6.71,5.29-6.71,10.08,0,4.16,1,10.09,6.71,10.09s6.75-5.93,6.75-10.09C458.1,21.69,456.49,16.4,451.35,16.4Z"/>
  <path class="cls-1" d="M473.27,32.6c0,2.79.1,3.38,2.26,3.38,1.32,0,1.42.05,1.42.63,0,.3,0,.64-.49.64-.25,0-.88-.1-4.31-.1-4.6,0-5.88.1-6.36.1s-.4-.29-.4-.54c0-.63.05-.73,1.86-.73A1.72,1.72,0,0,0,469,34.8c.19-.44.29-6.9.29-9V8.66c0-4.25-.15-4.84-2.84-5.09A.51.51,0,0,1,466,3c0-.4.15-.64.39-.69,4-.68,6.32-2.1,6.81-2.1.19,0,.29.24.29.53s-.25.69-.25,7.05Z"/>
  <path class="cls-1" d="M486.88,32.6c0,2.79.1,3.38,2.25,3.38,1.33,0,1.42.05,1.42.63,0,.3,0,.64-.49.64-.24,0-.88-.1-4.3-.1-4.6,0-5.88.1-6.37.1S479,37,479,36.71c0-.63.05-.73,1.86-.73a1.7,1.7,0,0,0,1.76-1.18c.2-.44.3-6.9.3-9V8.66c0-4.25-.15-4.84-2.84-5.09-.3,0-.44-.24-.44-.58s.14-.64.39-.69c4-.68,6.31-2.1,6.8-2.1.2,0,.3.24.3.53s-.25.69-.25,7.05Z"/>
  <path class="cls-1" d="M497.8,23.94a17.46,17.46,0,0,0-.2,2.79c0,3.18,2.69,8.07,8,8.07a6.39,6.39,0,0,0,5.73-2.93c.29-.39.49-.84.73-.84a1,1,0,0,1,.78.59c0,.15-1.95,6.22-8.41,6.22-7,0-10.68-4.31-10.68-11.16s4.75-11.75,9.79-11.75c8.13,0,8.77,7,8.77,8.47,0,.49-.2.54-.59.54Zm8.42-1.47c1,0,1.66-.3,1.66-1.62,0-3.82-2.64-4.65-4.31-4.65-3.52,0-5,2.94-5.48,6.27Z"/>
  <path class="cls-1" d="M533.68,33c.39-.34.58-.78.83-.78s.73.34.73.68a1.07,1.07,0,0,1-.39.74,11,11,0,0,1-8.56,4.16c-5.68,0-10.14-4.06-10.14-11.06,0-7.25,4.8-11.65,11.12-11.65,6.7,0,8,3.62,8,4.65a2.53,2.53,0,0,1-2.59,2.1c-1.57,0-1.76-.49-2.3-3.18-.15-.74-.49-2.3-3-2.3-3.08,0-6.9,2.35-6.9,10.38,0,2.2.83,8.32,8.32,8.32A9,9,0,0,0,533.68,33Z"/>
  <path class="cls-1" d="M544.54,28.54c0,5.19.44,7.05,4.31,7.05a8.13,8.13,0,0,0,3.33-1.13c.2,0,.54.49.54.78s-2.06,2.6-6.51,2.6c-5.63,0-5.63-4.85-5.63-6.07V18.9c0-.4-.15-.64-.49-.64h-2.45c-.15,0-.29-.15-.29-.44a.88.88,0,0,1,.29-.69c4.55-3.42,5.48-6,6.46-6a.58.58,0,0,1,.59.64c0,.88-.15,1.71-.15,4.5h7.54c.34,0,.49.34.49,1s-.29,1.22-1.32,1.22c-.34,0-2.64-.24-6.71-.24Z"/>
  <path class="cls-1" d="M561.19,32.6c0,2.79.09,3.38,2.25,3.38,1.07,0,1.17.05,1.17.63,0,.3,0,.64-.49.64-.24,0-.88-.1-4.06-.1-4.6,0-5.87.1-6.61.1-.39,0-.39-.29-.39-.54,0-.63.05-.73,1.86-.73a1.84,1.84,0,0,0,2-1.18,50.73,50.73,0,0,0,.29-7v-6.7c0-1.71-.44-2.69-2.89-2.94-.39-.05-.44-.24-.44-.59s.15-.63.39-.68c5.58-1.13,6.27-2.4,6.86-2.4.19,0,.29.25.29.54s-.24.68-.24,7.05ZM556.63,5a2.55,2.55,0,1,1,2.55,2.6A2.6,2.6,0,0,1,556.63,5Z"/>
  <path class="cls-1" d="M579.15,37.84a11,11,0,0,1-11.36-11.36,11.38,11.38,0,0,1,22.76,0C590.55,33.33,586,37.84,579.15,37.84Zm0-21.44c-5.09,0-6.71,5.29-6.71,10.08,0,4.16,1,10.09,6.71,10.09s6.75-5.93,6.75-10.09C585.9,21.69,584.29,16.4,579.15,16.4Z"/>
  <path class="cls-1" d="M600.83,32.6c0,2.79.1,3.38,2.25,3.38,1.33,0,1.42.05,1.42.63,0,.3,0,.64-.49.64-.24,0-.88-.1-4.3-.1-4.6,0-5.88.1-6.61.1-.39,0-.39-.29-.39-.54,0-.63,0-.73,1.86-.73a1.82,1.82,0,0,0,2-1.18,48.52,48.52,0,0,0,.3-7v-6.7c0-1.71-.44-2.69-2.89-2.94-.39-.05-.44-.24-.44-.59s.15-.63.39-.68c5.58-1.13,6.27-2.4,6.85-2.4.1,0,.15.15.15.54s-.1,1.37-.1,3.52c2.55-1.71,5-3.37,7.69-3.37,1.66,0,6.46.34,6.46,7.34V34.22c0,.83.15,1.76,3.18,1.76.49,0,.49.29.49.63s0,.64-.68.64c-1.47,0-2.35-.1-5-.1-4,0-4.75.1-5.14.1s-.34-.34-.34-.59a.63.63,0,0,1,.68-.68c2.35,0,2.79-.2,2.79-1.81V25.41c0-4.56-.39-7.59-5.48-7.59-1.86,0-4.5,1.66-4.7,2.25Z"/>
</svg>