<?xml version="1.0" standalone="no"?>
<!DOCTYPE svg PUBLIC "-//W3C//DTD SVG 20010904//EN"
 "http://www.w3.org/TR/2001/REC-SVG-20010904/DTD/svg10.dtd">
<svg version="1.0" xmlns="http://www.w3.org/2000/svg"
 width="500.000000pt" height="500.000000pt" viewBox="0 0 500.000000 500.000000"
 preserveAspectRatio="xMidYMid meet">
<metadata>
Created by potrace 1.11, written by Peter Selinger 2001-2013
</metadata>
<g transform="translate(0.000000,500.000000) scale(0.100000,-0.100000)"
fill="#000000" stroke="none">
<path d="M2267 4838 c-9 -6 -12 -490 -12 -2343 0 -2075 1 -2335 15 -2336 49
-3 209 13 260 26 3 1 19 5 35 9 367 90 689 388 814 752 16 49 32 100 34 114 3
14 10 54 17 90 15 81 15 251 1 350 -56 375 -293 706 -629 874 -70 36 -222 90
-277 100 -16 3 -52 10 -80 15 -27 5 -54 7 -59 4 -5 -4 -6 -1 -2 5 4 7 20 12
36 12 16 0 60 7 97 14 486 103 861 516 919 1011 75 646 -396 1234 -1041 1301
-103 10 -115 10 -128 2z"/>
<path d="M4927 4844 c-1 -2 -31 -5 -65 -8 -385 -36 -745 -283 -922 -633 -90
-179 -132 -370 -125 -568 2 -66 7 -136 11 -154 12 -68 43 -180 64 -233 35 -84
42 -99 89 -178 194 -328 546 -544 924 -567 l97 -6 0 1172 c0 644 -3 1171 -7
1172 -28 3 -64 4 -66 3z"/>
<path d="M1690 2494 c-326 -49 -587 -196 -780 -439 -108 -137 -201 -343 -234
-520 -15 -76 -16 -348 -3 -400 3 -11 12 -50 21 -86 111 -477 533 -840 1026
-886 69 -6 85 -7 112 -4 15 1 16 86 16 1171 l1 1170 -67 -1 c-37 -1 -78 -3
-92 -5z"/>
</g>
</svg>
